<svg xmlns="http://www.w3.org/2000/svg" viewBox="0 0 25.2 5.96" xmlns:c2pa="http://c2pa.org/manifest"><metadata><c2pa:manifest>AAAWgmp1bWIAAAAeanVtZGMycGEAEQAQgAAAqgA4m3EDYzJwYQAAABZcanVtYgAAAEdqdW1kYzJtYQARABCAAACqADibcQN1cm46YzJwYTo1MWU1MjBhNi04OTQ4LTQxM2EtOGU2NS1hYzI1NGMwMDNkNzAAAAADl2p1bWIAAAApanVtZGMyYXMAEQAQgAAAqgA4m3EDYzJwYS5hc3NlcnRpb25zAAAAALxqdW1iAAAARGp1bWRjYm9yABEAEIAAAKoAOJtxE2MycGEuaW5ncmVkaWVudC52MwAAAAAYYzJzaGDUE6BPKqoCKDs5+BwemlcAAABwY2JvcqNpZGM6Zm9ybWF0bWltYWdlL3N2Zyt4bWxqaW5zdGFuY2VJRHgseG1wOmlpZDpjMWYxZjY0ZS03MmQ2LTRlZjgtOWI1NC03NjE1MDJlZjIzNjBscmVsYXRpb25zaGlwaHBhcmVudE9mAAAB4mp1bWIAAABBanVtZGNib3IAEQAQgAAAqgA4m3ETYzJwYS5hY3Rpb25zLnYyAAAAABhjMnNobuYgGFeZfCLo29ly5vgvPAAAAZljYm9yomdhY3Rpb25zgqJmYWN0aW9ua2MycGEub3BlbmVkanBhcmFtZXRlcnOha2luZ3JlZGllbnRzgaJjdXJseC1zZWxmI2p1bWJmPWMycGEuYXNzZXJ0aW9ucy9jMnBhLmluZ3JlZGllbnQudjNkaGFzaFgg4PSYoVVUivF2hRVviWOUcwYbteBKjZE/mLPKmW6BSK6kZmFjdGlvbngdY29tLmFudGhyb3BpYy5jbGF1ZGUucHJvdmlkZWRqcGFyYW1ldGVyc6F4H2NvbS5hbnRocm9waWMub3JpZ2luLWNvbmZpZGVuY2VndW5rbm93bmtkZXNjcmlwdGlvbnhmQ2xhdWRlIHByb3ZpZGVkIHRoaXMgZmlsZSBhdCB0aGUgcmVxdWVzdCBvZiBhIHVzZXIgYW5kIG1heSBoYXZlIGNyZWF0ZWQgb3IgbW9kaWZpZWQgdGhlIGZpbGUgY29udGVudHMubXNvZnR3YXJlQWdlbnShZG5hbWVmQ2xhdWRlcmFsbEFjdGlvbnNJbmNsdWRlZPUAAADIanVtYgAAAEBqdW1kY2JvcgARABCAAACqADibcRNjMnBhLmhhc2guZGF0YQAAAAAYYzJzaCnfxHx/OI070TGdcQzwAeYAAACAY2JvcqVjYWxnZnNoYTI1NmNwYWRNAAAAAAAAAAAAAAAAAGRoYXNoWCBBtZJcQ1mJc7DEwfyNvxOxMmH5zeOEsk7y7IAp+5WXX2RuYW1lbmp1bWJmIG1hbmlmZXN0amV4Y2x1c2lvbnOBomVzdGFydBh/Zmxlbmd0aBkeBAAAAj5qdW1iAAAAJ2p1bWRjMmNsABEAEIAAAKoAOJtxA2MycGEuY2xhaW0udjIAAAACD2Nib3KlY2FsZ2ZzaGEyNTZpc2lnbmF0dXJleE1zZWxmI2p1bWJmPS9jMnBhL3VybjpjMnBhOjUxZTUyMGE2LTg5NDgtNDEzYS04ZTY1LWFjMjU0YzAwM2Q3MC9jMnBhLnNpZ25hdHVyZWppbnN0YW5jZUlEeCx4bXA6aWlkOjExYWVjZDI5LWZlOTEtNGU4Yi1hMDY4LTcwNmRlZGM5OTNjOXJjcmVhdGVkX2Fzc2VydGlvbnODomN1cmx4LXNlbGYjanVtYmY9YzJwYS5hc3NlcnRpb25zL2MycGEuaW5ncmVkaWVudC52M2RoYXNoWCDg9JihVVSK8XaFFW+JY5RzBhu14EqNkT+Ys8qZboFIrqJjdXJseCpzZWxmI2p1bWJmPWMycGEuYXNzZXJ0aW9ucy9jMnBhLmFjdGlvbnMudjJkaGFzaFggTzd9oX2Wrncp17OyrxQRMgiWfVCusmSH3ZTdZMDIyICiY3VybHgpc2VsZiNqdW1iZj1jMnBhLmFzc2VydGlvbnMvYzJwYS5oYXNoLmRhdGFkaGFzaFggmzBAaygqlfvhfCUCDfWARQnjxqI9fi6RS4sfP6KuYVl0Y2xhaW1fZ2VuZXJhdG9yX2luZm+jZG5hbWVvQW50aHJvcGljIEZpbGVzZ3ZlcnNpb25lMS4wLjBrc3BlY1ZlcnNpb25lMi40LjAAABA4anVtYgAAAChqdW1kYzJjcwARABCAAACqADibcQNjMnBhLnNpZ25hdHVyZQAAABAIY2JvctKEWQISogEmGCFZAgowggIGMIIBjaADAgECAhRA5aAK7sI50L64g/oGQgU9Z1UTADAKBggqhkjOPQQDAzBJMRcwFQYDVQQKEw5BbnRocm9waWMsIFBCQzEuMCwGA1UEAxMlQW50aHJvcGljIENvbnRlbnQgQ3JlZGVudGlhbHMgUm9vdCBDQTAeFw0yNjA4MDcxODQzNTZaFw0yODA4MDYxOTQzNTZaMEQxFzAVBgNVBAoTDkFudGhyb3BpYywgUEJDMSkwJwYDVQQDEyBBbnRocm9waWMgQ2xhdWRlIENvbnRlbnQgU2lnbmluZzBZMBMGByqGSM49AgEGCCqGSM49AwEHA0IABJh6CmvLUBgFFNU0vUKlOVtE6djd17L5SuwX0LemFisBM3dkd/3cyjxFA3Qo5S46fX0/ihY0VZ7mfb9KF703t5OjWDBWMA4GA1UdDwEB/wQEAwIHgDAVBgNVHSUEDjAMBgorBgEEAYPoXgIBMAwGA1UdEwEB/wQCMAAwHwYDVR0jBBgwFoAUzlHiBIFOZFsj+OPEz5o+nMHXXMIwCgYIKoZIzj0EAwMDZwAwZAIwMXMdFJ4BetLLVY7ORuE9noqbbAZOZn/aArXyTwFAZfKrPzxF2vPoJNf1+UCdg1XGAjBwX1zd9WGqYkqmL5SFqw1QySjr1zJfpJM9+1rdDwSPLMOPOjKuiXjoU/pUUeG9RwmhY3BhZFkNngAAAAAAAAAAAAAAAAAAAAAAAAAAAAAAAAAAAAAAAAAAAAAAAAAAAAAAAAAAAAAAAAAAAAAAAAAAAAAAAAAAAAAAAAAAAAAAAAAAAAAAAAAAAAAAAAAAAAAAAAAAAAAAAAAAAAAAAAAAAAAAAAAAAAAAAAAAAAAAAAAAAAAAAAAAAAAAAAAAAAAAAAAAAAAAAAAAAAAAAAAAAAAAAAAAAAAAAAAAAAAAAAAAAAAAAAAAAAAAAAAAAAAAAAAAAAAAAAAAAAAAAAAAAAAAAAAAAAAAAAAAAAAAAAAAAAAAAAAAAAAAAAAAAAAAAAAAAAAAAAAAAAAAAAAAAAAAAAAAAAAAAAAAAAAAAAAAAAAAAAAAAAAAAAAAAAAAAAAAAAAAAAAAAAAAAAAAAAAAAAAAAAAAAAAAAAAAAAAAAAAAAAAAAAAAAAAAAAAAAAAAAAAAAAAAAAAAAAAAAAAAAAAAAAAAAAAAAAAAAAAAAAAAAAAAAAAAAAAAAAAAAAAAAAAAAAAAAAAAAAAAAAAAAAAAAAAAAAAAAAAAAAAAAAAAAAAAAAAAAAAAAAAAAAAAAAAAAAAAAAAAAAAAAAAAAAAAAAAAAAAAAAAAAAAAAAAAAAAAAAAAAAAAAAAAAAAAAAAAAAAAAAAAAAAAAAAAAAAAAAAAAAAAAAAAAAAAAAAAAAAAAAAAAAAAAAAAAAAAAAAAAAAAAAAAAAAAAAAAAAAAAAAAAAAAAAAAAAAAAAAAAAAAAAAAAAAAAAAAAAAAAAAAAAAAAAAAAAAAAAAAAAAAAAAAAAAAAAAAAAAAAAAAAAAAAAAAAAAAAAAAAAAAAAAAAAAAAAAAAAAAAAAAAAAAAAAAAAAAAAAAAAAAAAAAAAAAAAAAAAAAAAAAAAAAAAAAAAAAAAAAAAAAAAAAAAAAAAAAAAAAAAAAAAAAAAAAAAAAAAAAAAAAAAAAAAAAAAAAAAAAAAAAAAAAAAAAAAAAAAAAAAAAAAAAAAAAAAAAAAAAAAAAAAAAAAAAAAAAAAAAAAAAAAAAAAAAAAAAAAAAAAAAAAAAAAAAAAAAAAAAAAAAAAAAAAAAAAAAAAAAAAAAAAAAAAAAAAAAAAAAAAAAAAAAAAAAAAAAAAAAAAAAAAAAAAAAAAAAAAAAAAAAAAAAAAAAAAAAAAAAAAAAAAAAAAAAAAAAAAAAAAAAAAAAAAAAAAAAAAAAAAAAAAAAAAAAAAAAAAAAAAAAAAAAAAAAAAAAAAAAAAAAAAAAAAAAAAAAAAAAAAAAAAAAAAAAAAAAAAAAAAAAAAAAAAAAAAAAAAAAAAAAAAAAAAAAAAAAAAAAAAAAAAAAAAAAAAAAAAAAAAAAAAAAAAAAAAAAAAAAAAAAAAAAAAAAAAAAAAAAAAAAAAAAAAAAAAAAAAAAAAAAAAAAAAAAAAAAAAAAAAAAAAAAAAAAAAAAAAAAAAAAAAAAAAAAAAAAAAAAAAAAAAAAAAAAAAAAAAAAAAAAAAAAAAAAAAAAAAAAAAAAAAAAAAAAAAAAAAAAAAAAAAAAAAAAAAAAAAAAAAAAAAAAAAAAAAAAAAAAAAAAAAAAAAAAAAAAAAAAAAAAAAAAAAAAAAAAAAAAAAAAAAAAAAAAAAAAAAAAAAAAAAAAAAAAAAAAAAAAAAAAAAAAAAAAAAAAAAAAAAAAAAAAAAAAAAAAAAAAAAAAAAAAAAAAAAAAAAAAAAAAAAAAAAAAAAAAAAAAAAAAAAAAAAAAAAAAAAAAAAAAAAAAAAAAAAAAAAAAAAAAAAAAAAAAAAAAAAAAAAAAAAAAAAAAAAAAAAAAAAAAAAAAAAAAAAAAAAAAAAAAAAAAAAAAAAAAAAAAAAAAAAAAAAAAAAAAAAAAAAAAAAAAAAAAAAAAAAAAAAAAAAAAAAAAAAAAAAAAAAAAAAAAAAAAAAAAAAAAAAAAAAAAAAAAAAAAAAAAAAAAAAAAAAAAAAAAAAAAAAAAAAAAAAAAAAAAAAAAAAAAAAAAAAAAAAAAAAAAAAAAAAAAAAAAAAAAAAAAAAAAAAAAAAAAAAAAAAAAAAAAAAAAAAAAAAAAAAAAAAAAAAAAAAAAAAAAAAAAAAAAAAAAAAAAAAAAAAAAAAAAAAAAAAAAAAAAAAAAAAAAAAAAAAAAAAAAAAAAAAAAAAAAAAAAAAAAAAAAAAAAAAAAAAAAAAAAAAAAAAAAAAAAAAAAAAAAAAAAAAAAAAAAAAAAAAAAAAAAAAAAAAAAAAAAAAAAAAAAAAAAAAAAAAAAAAAAAAAAAAAAAAAAAAAAAAAAAAAAAAAAAAAAAAAAAAAAAAAAAAAAAAAAAAAAAAAAAAAAAAAAAAAAAAAAAAAAAAAAAAAAAAAAAAAAAAAAAAAAAAAAAAAAAAAAAAAAAAAAAAAAAAAAAAAAAAAAAAAAAAAAAAAAAAAAAAAAAAAAAAAAAAAAAAAAAAAAAAAAAAAAAAAAAAAAAAAAAAAAAAAAAAAAAAAAAAAAAAAAAAAAAAAAAAAAAAAAAAAAAAAAAAAAAAAAAAAAAAAAAAAAAAAAAAAAAAAAAAAAAAAAAAAAAAAAAAAAAAAAAAAAAAAAAAAAAAAAAAAAAAAAAAAAAAAAAAAAAAAAAAAAAAAAAAAAAAAAAAAAAAAAAAAAAAAAAAAAAAAAAAAAAAAAAAAAAAAAAAAAAAAAAAAAAAAAAAAAAAAAAAAAAAAAAAAAAAAAAAAAAAAAAAAAAAAAAAAAAAAAAAAAAAAAAAAAAAAAAAAAAAAAAAAAAAAAAAAAAAAAAAAAAAAAAAAAAAAAAAAAAAAAAAAAAAAAAAAAAAAAAAAAAAAAAAAAAAAAAAAAAAAAAAAAAAAAAAAAAAAAAAAAAAAAAAAAAAAAAAAAAAAAAAAAAAAAAAAAAAAAAAAAAAAAAAAAAAAAAAAAAAAAAAAAAAAAAAAAAAAAAAAAAAAAAAAAAAAAAAAAAAAAAAAAAAAAAAAAAAAAAAAAAAAAAAAAAAAAAAAAAAAAAAAAAAAAAAAAAAAAAAAAAAAAAAAAAAAAAAAAAAAAAAAAAAAAAAAAAAAAAAAAAAAAAAAAAAAAAAAAAAAAAAAAAAAAAAAAAAAAAAAAAAAAAAAAAAAAAAAAAAAAAAAAAAAAAAAAAAAAAAAAAAAAAAAAAAAAAAAAAAAAAAAAAAAAAAAAAAAAAAAAAAAAAAAAAAAAAAAAAAAAAAAAAAAAAAAAAAAAAAAAAAAAAAAAAAAAAAAAAAAAAAAAAAAAAAAAAAAAAAAAAAAAAAAAAAAAAAAAAAAAAAAAAAAAAAAAAAAAAAAAAAAAAAAAAAAAAAAAAAAAAAAAAAAAAAAAAAAAAAAAAAAAAAAAAAAAAAAAAAAAAAAAAAAAAAAAAAAAAAAAAAAAAAAAAAAAAAAAAAAAAAAAAAAAAAAAAAAAAAAAAAAAAAAAAAAAAAAAAAAAAAAAAAAAAAAAAAAAAAAAAAAAAAAAAAAAAAAAAAAAAAAAAAAAAAAAAAAAAAAAAAAAAAAAAAAAAAAAAAAAAAAAAAAAAAAAAAAAAAAAAAAAAAAAAAAAAAAAAAAAAAAAAAAAAAAAAAAAAAAAAAAAAAAAAAAAAAAAAAAAAAAAAAAAAAAAAAAAAAAAAAAAAAAAAAAAAAAAAAAAAAAAAAAAAAAAAAAAAAAAAAAAAAAAAAAAAAAAAAAAAAAAAAAAAAAAAAAAAAAAAAAAAAAAAAAAAAAAAAAAAAAAAAAAAAAAAAAAAAAAAAAAAAAAAAAAAAAAAAAAAAAAAAAAAAAAAAAAAAAAAAAAAAAAAAAAAAAAAAAAAAAAAAAAAAAAAAAAAAAAAAAAAAAAAAAAAAAAAAAAAAAAAAAAAAAAAAAAAAAAAAAAAAAAAAAAAAAAAAAAAAAAAAAAAAAAAAAAAAAAAAAAAAAAAAAAAAAAAAAAAAAAAAAAAAAAAAAAAAAAAAAAAAAAAAAAAAAAAAAAAAAAAAAAAAAAAAAAAAAAAAAAAAAAAAAAAAAAAAAAAAAAAAAAAAAAAAAAAAAAAAAAAAAAAAAAAAAAAAAAAAAAAAAAAAAAAAAAAAAAAAAAAAAAAAAAAAAAAAAAAAAAAAAAAAAAAAAAAAAAAAAAAAAAAAAAAAAAAAAAAAAAAAAAAAAAAAAAAAAAAAAAAAAAAAAAAAAAAAAAAAAAAAAAAAAAAAAAAAAAAAAAAAAAAAAAAAAAAAAAAAAAAAAAAAAAAAAAAAAAAAAAAAAAAAAAAAAAAAAAAAAAAAAAAAAAAAAAAAAAAAAAAAAAAAAAAAAAAAAAAAAAAAAAAAAAAAAAAAAAAAAAAAAAAAAAAAAAAAAAAAAAAAAAAAAAAAAAAAAAAAAAAAAAAAAAAAAAAAAAAAAAAAAAAAAAAAAAAAAAAAAAAAAAAAAAAAAAAAAAAAAAAAAAAAAAAAAAAAAAAAAAAAAAAAAAAAAAAAAAAAAAAAAAAAAAAAAAAAAAAAAAAAAAAAAAAAAAAAAAAAAAAAAAAAAAAAAAAAAAAAAAAAAAAAAAAAAAAAAAAAAAAAAAAAAAAAAAAAAAAAAAAAAAAAAAAAAAAAAAAAAAAAAAAAAAAAAAAAAAAAAAAAAAAAAAAAAAAAAAAAAAAAAAAAAAAAAAAAAAAAAAAAAAAAAAAAAAAAAAAAAAAAAAAAAAAAAAAAAAAPZYQEI0CygirhmMxeA5kktwiTkSfFQPHj8MPQ4KzMAhOZ1p0Rs4gptSr0g/LvltlHxTzI8hBcto+/6xyiTbR5Lr/a4=</c2pa:manifest></metadata><defs></defs><g id="Layer_2" data-name="Layer 2"><g id="Layer_1-2" data-name="Layer 1"><path fill="#e7c9f2" class="cls-1" d="M2.22.22l.09.27h0A1.19,1.19,0,0,0,1.41.12,1.17,1.17,0,0,0,.56.43a1,1,0,0,0-.32.75,1.6,1.6,0,0,0,.15.63,1.3,1.3,0,0,0,.45.59,1.26,1.26,0,0,0,.75.23,1.63,1.63,0,0,0,.57-.1.87.87,0,0,0,.41-.25h0l-.18.28-.56.11H1.5A1.5,1.5,0,0,1,.35,2.32,1.28,1.28,0,0,1,0,1.43,1.38,1.38,0,0,1,.18.75,1.25,1.25,0,0,1,.69.24,1.52,1.52,0,0,1,1.46.05a1.31,1.31,0,0,1,.37,0L2.1.17l.11,0ZM4.13.05A1.22,1.22,0,0,1,5,.38a1.09,1.09,0,0,1,.35.82A1.53,1.53,0,0,1,5,2.26a1.37,1.37,0,0,1-1.06.43A1.18,1.18,0,0,1,3,2.35a1.21,1.21,0,0,1-.34-.84A1.62,1.62,0,0,1,2.86.83,1.33,1.33,0,0,1,3.35.27,1.35,1.35,0,0,1,4.13.05Zm0,2.51a1.1,1.1,0,0,0,.52-.14A1.18,1.18,0,0,0,5.05,2a1,1,0,0,0,.15-.52A1.22,1.22,0,0,0,5,.84,1.4,1.4,0,0,0,4.48.36,1.19,1.19,0,0,0,3.89.19,1,1,0,0,0,3.2.47a.94.94,0,0,0-.31.72,1.36,1.36,0,0,0,.38,1A1.13,1.13,0,0,0,4.12,2.56ZM7.72.09h.49v0a.26.26,0,0,0-.15.05A.27.27,0,0,0,8,.35V2.69L6,.51V2.4a.53.53,0,0,0,0,.14A.09.09,0,0,0,6,2.6l.13,0v0H5.66v0c.09,0,.14,0,.16,0a.44.44,0,0,0,0-.22V.62A1,1,0,0,0,5.79.25c0-.1-.14-.14-.29-.14v0H6L7.9,2.14V.33c0-.1,0-.16-.05-.18a.25.25,0,0,0-.13,0Zm.74,0v0h1.63v.3h0C10,.28,10,.23,10,.21a.47.47,0,0,0-.19,0H8.94V1.31h.77l.14,0s0,0,0-.07h0v.25h0q0-.09-.12-.09H8.94v1a.35.35,0,0,0,0,.19.28.28,0,0,0,.16,0v0H8.46v0c.08,0,.13,0,.15,0a.21.21,0,0,0,0-.12V.35a.36.36,0,0,0,0-.18A.18.18,0,0,0,8.46.11Zm2.46,0v0l-.11,0a.09.09,0,0,0-.07.06.82.82,0,0,0,0,.19v2a.87.87,0,0,0,0,.2l0,.05a.23.23,0,0,0,.13,0v0h-.68v0c.09,0,.14,0,.16,0a.53.53,0,0,0,0-.23V.4a.62.62,0,0,0,0-.24.22.22,0,0,0-.16,0v0Zm.26,0v0h1.13a.87.87,0,0,1,.26.08.5.5,0,0,1,.19.19.52.52,0,0,1,.07.29.65.65,0,0,1-.12.37,1,1,0,0,1-.33.3l.18.28c0,.07.14.22.31.45a1.81,1.81,0,0,0,.4.44.54.54,0,0,0,.27.07.56.56,0,0,0,.29-.1l0,0a.88.88,0,0,1-.55.17.62.62,0,0,1-.38-.13,4.23,4.23,0,0,1-.56-.73h0l-.26-.4h-.44v1a.27.27,0,0,0,0,.17s.07,0,.15,0v0h-.67v0c.09,0,.14,0,.16,0a.46.46,0,0,0,0-.2v-2a.43.43,0,0,0,0-.17S11.27.12,11.18.11Zm.48.05v1.2h.27a.63.63,0,0,0,.47-.15.5.5,0,0,0,.16-.39.76.76,0,0,0-.15-.45.61.61,0,0,0-.53-.21ZM16.35.09h.41v0a.2.2,0,0,0-.21.22s0,.07,0,.12l.27,1.94a.59.59,0,0,0,.06.19s.06,0,.12,0v0h-.57v0a.1.1,0,0,0,.11-.11.46.46,0,0,0,0-.1L16.28.53l-.92,2.12h0L14.42.53l-.26,1.9a.31.31,0,0,0,0,.1c0,.06,0,.1.12.1v0h-.39v0a.23.23,0,0,0,.11,0,.16.16,0,0,0,0-.07.43.43,0,0,0,0-.11L14.34.36c0-.12-.09-.19-.14-.21a.37.37,0,0,0-.14,0v0h.49l.9,2.1Zm2.17,1.38h-.75l-.39,1a.4.4,0,0,0,0,.13s0,.06.08.06v0H17v0a.18.18,0,0,0,.13,0s.07-.09.12-.19L18.22.05h0l.92,2.27a.84.84,0,0,0,.07.16.22.22,0,0,0,.21.15v0h-.6v0c.06,0,.08,0,.08-.07a.38.38,0,0,0,0-.14v0Zm-.73-.07h.7L18.14.53ZM22.68,0l-.13.31h0V.23a.08.08,0,0,0,0-.05h-.76v2.2a.39.39,0,0,0,0,.18.09.09,0,0,0,.06.07H22v0h-.7v0a.28.28,0,0,0,.17,0,.36.36,0,0,0,0-.18V.17h-.77a.06.06,0,0,0,0,.06.25.25,0,0,0,0,.07h0L20.52,0h0s0,.07.07.08h2A.11.11,0,0,0,22.65,0ZM25.2,2.65h-.49V2.26a1.15,1.15,0,0,1-.88.41.84.84,0,0,1-.6-.21A.79.79,0,0,1,23,1.87V.33a.36.36,0,0,0,0-.18.24.24,0,0,0-.16,0v0h.69v0a.28.28,0,0,0-.16,0s0,.08,0,.16V1.72a.83.83,0,0,0,.21.63.64.64,0,0,0,.47.19,1,1,0,0,0,.73-.37V.43c0-.15,0-.24,0-.27a.14.14,0,0,0-.12,0h0v0h.68v0c-.08,0-.14,0-.16.05a.19.19,0,0,0,0,.13V2.38c0,.08,0,.13,0,.16a.15.15,0,0,0,.05.06.23.23,0,0,0,.13,0Zm-21,2.09H3.41L3,5.71a1.28,1.28,0,0,0,0,.13s0,.06.09.06v0H2.69v0a.2.2,0,0,0,.13,0,.49.49,0,0,0,.11-.19l.93-2.35h.05l.91,2.27.07.16a.23.23,0,0,0,.22.15v0h-.6v0s.08,0,.08-.07a.38.38,0,0,0,0-.14v0Zm-.73-.07h.69L3.79,3.8ZM6.49,3.39l.13.32h0s0,0-.1-.11a.78.78,0,0,0-.22-.15A.67.67,0,0,0,6,3.4a.57.57,0,0,0-.42.15.5.5,0,0,0-.15.37.4.4,0,0,0,.07.24.67.67,0,0,0,.3.2c.26.09.44.15.54.2a.73.73,0,0,1,.28.23.6.6,0,0,1,.14.41.69.69,0,0,1,0,.2.71.71,0,0,1-.08.18.65.65,0,0,1-.13.16.72.72,0,0,1-.15.11l-.25.06H5.21V5.18h0a.67.67,0,0,0,.17.52A.89.89,0,0,0,6,5.84a.72.72,0,0,0,.49-.15.48.48,0,0,0,.17-.38.4.4,0,0,0-.06-.22.49.49,0,0,0-.16-.16A2,2,0,0,0,6,4.75a2.32,2.32,0,0,1-.42-.18.65.65,0,0,1-.2-.23A.72.72,0,0,1,5.29,4a.67.67,0,0,1,.21-.5A.72.72,0,0,1,6,3.32l.28,0,.17,0Zm1.15,0v0l-.11,0s-.07,0-.07.06a.66.66,0,0,0,0,.19v2a.69.69,0,0,0,0,.2.08.08,0,0,0,0,0,.21.21,0,0,0,.13,0v0H7v0a.2.2,0,0,0,.16-.05.53.53,0,0,0,0-.23V3.67a.45.45,0,0,0,0-.24S7,3.38,7,3.38v0Zm1.49,0,.12.32h0s0,0-.1-.11a.57.57,0,0,0-.22-.15.61.61,0,0,0-.28-.06.6.6,0,0,0-.42.15.5.5,0,0,0-.15.37.4.4,0,0,0,.07.24.67.67,0,0,0,.3.2,5.3,5.3,0,0,1,.55.2.81.81,0,0,1,.28.23.59.59,0,0,1,.13.41,1.36,1.36,0,0,1,0,.2,1.42,1.42,0,0,1-.08.18,1,1,0,0,1-.13.16A.57.57,0,0,1,9,5.85l-.24.06H7.85V5.18h0a.67.67,0,0,0,.17.52.84.84,0,0,0,.53.14.73.73,0,0,0,.5-.15.52.52,0,0,0,.17-.38.4.4,0,0,0-.06-.22A.52.52,0,0,0,9,4.93a1.75,1.75,0,0,0-.4-.18,2.5,2.5,0,0,1-.41-.18A.57.57,0,0,1,8,4.34.61.61,0,0,1,7.93,4a.7.7,0,0,1,.2-.5.77.77,0,0,1,.54-.2l.28,0,.17,0Zm2.5-.12-.12.31h0s0,0,0-.08a.05.05,0,0,0,0,0H10.7v2.2a.39.39,0,0,0,0,.18.09.09,0,0,0,.06.07h.12v0h-.7v0c.09,0,.15,0,.17-.05a.36.36,0,0,0,0-.18V3.44H9.63a.06.06,0,0,0,0,.06.25.25,0,0,0,0,.07h0l-.12-.31h0a.18.18,0,0,0,.06.08h2a.1.1,0,0,0,.06-.08Zm.13.12v0h1.62v.35h0a.47.47,0,0,0-.09-.23.29.29,0,0,0-.17,0h-.85V4.6H13l.14,0a.1.1,0,0,0,0-.07h0v.24h0a.09.09,0,0,0,0-.06s-.07,0-.12,0h-.81v.79a.79.79,0,0,0,0,.26s.06.09.11.1l.22,0h.45l.28,0,.1-.05a.47.47,0,0,0,.06-.2h0v.35H11.76v0a.39.39,0,0,0,.14,0s0-.06,0-.14V3.64a.45.45,0,0,0,0-.19S11.85,3.39,11.76,3.39Zm4,0h.5v0a.27.27,0,0,0-.16.05s0,.09,0,.19V6L14.05,3.78V5.67a.53.53,0,0,0,0,.14.15.15,0,0,0,0,.06l.13,0v0h-.49v0a.23.23,0,0,0,.17-.05.48.48,0,0,0,0-.22V3.89a1,1,0,0,0-.06-.37.3.3,0,0,0-.3-.14v0h.48L16,5.41V3.6q0-.15-.06-.18a.25.25,0,0,0-.13,0Zm3,.13.1.27h0a1.26,1.26,0,0,0-1.72-.06,1,1,0,0,0-.32.75,1.76,1.76,0,0,0,.14.63,1.4,1.4,0,0,0,.46.59,1.22,1.22,0,0,0,.75.23,1.54,1.54,0,0,0,.56-.1.86.86,0,0,0,.42-.25h0L19,5.84,18.39,6h-.34a1.52,1.52,0,0,1-1.16-.37,1.27,1.27,0,0,1-.34-.89A1.49,1.49,0,0,1,16.72,4a1.28,1.28,0,0,1,.52-.51A1.49,1.49,0,0,1,18,3.32a1.35,1.35,0,0,1,.37,0l.26.08.12,0ZM20,3.36v0l-.11,0a.09.09,0,0,0-.07.06.82.82,0,0,0,0,.19v2a.87.87,0,0,0,0,.2.08.08,0,0,0,.05,0,.23.23,0,0,0,.13,0v0h-.68v0c.09,0,.14,0,.16-.05a.53.53,0,0,0,0-.23V3.67a.62.62,0,0,0,0-.24.22.22,0,0,0-.16-.05v0Zm1.62,1.38h-.75l-.39,1a.4.4,0,0,0,0,.13s0,.06.08.06v0h-.38v0a.18.18,0,0,0,.13,0,.49.49,0,0,0,.11-.19l.93-2.35h0l.92,2.27a.84.84,0,0,0,.07.16.21.21,0,0,0,.21.15v0h-.6v0c.06,0,.08,0,.08-.07a.38.38,0,0,0,0-.14v0Zm-.73-.07h.69l-.34-.87Z"></path></g></g></svg>